<svg width="405" height="326" viewBox="0 0 405 326" fill="none" xmlns="http://www.w3.org/2000/svg">
<path d="M371.278 107.158C373.266 81.3113 363.8 47.7195 348.427 26.8044C323.681 -6.86301 292.131 -5.0176 263.859 24.8377C257.186 31.8842 252.154 38.0513 248.5 46.846C247.727 48.7053 248.867 54.5151 247.75 52.8398C243.791 46.9007 241.369 41.2879 236.137 35.9823C224.75 24.4343 210.051 14.7704 194.368 10.3215C174.46 4.67367 144.367 3.29067 127.407 17.6264C116.809 26.5836 113.727 42.0135 115.981 55.0875C117.175 62.011 123.375 68.1683 124.41 74.3799C125.156 78.8553 117.321 68.5352 113.171 66.7004C91.7848 57.2437 62.7001 59.0171 41.5272 67.9179C8.72863 81.7058 -7.56989 124.037 22.1411 149.864C29.0952 155.909 38.477 160.611 47.8019 161.102C53.3995 161.397 54.1126 157.982 48.3639 156.232C18.7803 147.229 -2.32032 171.302 2.75503 199.874C5.93578 217.781 16.1594 234.138 32.4429 242.767C47.2584 250.618 72.8761 256.638 87.8853 245.952C91.9453 243.061 96.7013 236.31 97.4378 231.154C98.3175 224.997 92.9708 242.836 91.8187 248.948C84.5296 287.621 106.61 325.667 149.415 321.623C165.745 320.08 177.634 310.405 186.595 297.273C189.989 292.299 191.374 289.33 193.806 284.162C194.57 282.539 195.737 278.01 196.616 279.573C206.602 297.326 172.157 251.987 201.58 292.778C210.895 305.692 220.396 312.383 235.856 318.158C265.244 329.135 300.556 324.785 310.779 291.467C311.034 290.635 311.817 276.574 313.963 276.108C317.042 275.438 333.562 295.811 336.814 297.835C350.335 306.251 368.246 309.088 381.954 299.333C397.639 288.174 399.672 269.27 403.307 252.133" stroke="black" stroke-width="3" stroke-linecap="round"/>
</svg>
